/* XPM */
static char *c74cc1d25a4343c6e05baeb778587edcy9g7b6YYMK0Lt3r3[] = {
/* columns rows colors chars-per-pixel */
"32 32 168 2 ",
"   c None",
".  c black",
"X  c #1F1F1D",
"o  c #20211F",
"O  c #1D2C2E",
"+  c #202728",
"@  c #262D2D",
"#  c #2D2E2E",
"$  c #332F2D",
"%  c #32302E",
"&  c #3B322E",
"*  c #2F3333",
"=  c #323332",
"-  c #3F3936",
";  c #373939",
":  c #3A3B3A",
">  c #482A1A",
",  c #64361F",
"<  c #6D381B",
"1  c #6C3616",
"2  c #42332D",
"3  c #4D352B",
"4  c #4D382F",
"5  c #5D3624",
"6  c #5D3827",
"7  c #53372C",
"8  c #54382D",
"9  c #5B392B",
"0  c #4D3830",
"q  c #533A30",
"w  c #5C3E31",
"e  c #643C2A",
"r  c #6B3E29",
"t  c #693C26",
"y  c #713F24",
"u  c #45403D",
"i  c #5F4135",
"p  c #55423B",
"a  c #6C402C",
"s  c #744127",
"d  c #7B4327",
"f  c #74422A",
"g  c #7E492E",
"h  c #6B4533",
"j  c #704733",
"k  c #754933",
"l  c #7B4C35",
"z  c #444444",
"x  c #474847",
"c  c #4A4847",
"v  c #504845",
"b  c #5A4A45",
"n  c #5F5957",
"m  c #585757",
"M  c #644E47",
"N  c #715347",
"B  c #75564B",
"V  c #635D5A",
"C  c #60605F",
"Z  c #676767",
"A  c #6F6F6F",
"S  c #706460",
"D  c #6E7171",
"F  c #737373",
"G  c #767979",
"H  c #7C7D7C",
"J  c #9B4902",
"K  c #9C4E1E",
"L  c #B25B1F",
"P  c #824627",
"I  c #8C4A25",
"U  c #814628",
"Y  c #894D2D",
"T  c #854A2A",
"R  c #944D23",
"E  c #9A4E21",
"W  c #904F2D",
"Q  c #9E5021",
"!  c #9C5329",
"~  c #94502B",
"^  c #844D32",
"/  c #875035",
"(  c #8C5335",
")  c #865239",
"_  c #9C5837",
"`  c #985938",
"'  c #A75726",
"]  c #A05728",
"[  c #AE5D2A",
"{  c #A7592A",
"}  c #B35F2C",
"|  c #A45F38",
" . c #A75E35",
".. c #B3612F",
"X. c #A66039",
"o. c #AC643A",
"O. c #AE6235",
"+. c #B56332",
"@. c #BA6532",
"#. c #BE6936",
"$. c #B7693C",
"%. c #BB6A3A",
"&. c #C06935",
"*. c #C46F3D",
"=. c #C6713E",
"-. c #CD733D",
";. c #9D6046",
":. c #83665D",
">. c #9B6D5A",
",. c #A86747",
"<. c #BD6D40",
"1. c #B46A41",
"2. c #A56F5A",
"3. c #A46A52",
"4. c #B47558",
"5. c #8B6C60",
"6. c #8C736B",
"7. c #99786E",
"8. c #817774",
"9. c #AE7B68",
"0. c #A37261",
"q. c #B37C66",
"w. c #C87547",
"e. c #D37740",
"r. c #D67941",
"t. c #D87A42",
"y. c #BA826C",
"u. c #AA857A",
"i. c #D18D70",
"p. c #8D8C8B",
"a. c gray51",
"s. c #908E8D",
"d. c #919292",
"f. c #9E9B9B",
"g. c #AD8B80",
"h. c #BB9488",
"j. c #B29D96",
"k. c #BFA79F",
"l. c #B2A39F",
"z. c #A4A4A4",
"x. c #ABAAAA",
"c. c #BEAFAA",
"v. c #B5B1B0",
"b. c #BFBFBF",
"n. c #B9B5B4",
"m. c #C2A298",
"M. c #D2B5AC",
"N. c #CDB7B0",
"B. c #E5BAAA",
"V. c #E8BBAB",
"C. c #C3C3C4",
"Z. c #C9C2C0",
"A. c #C8C9C9",
"S. c #D9C6C1",
"D. c #D1C5C2",
"F. c #DFD0CC",
"G. c LightGray",
"H. c #DCDBDB",
"J. c #E4CDC6",
"K. c #E1DEDD",
"L. c #E2E2E2",
"P. c #EBEBEB",
"I. c #EAE5E4",
"U. c #F1EFEF",
"Y. c #F0F0EF",
"T. c #F4F2F1",
"R. c #FBF6F5",
"E. c #FDFDFE",
/* pixels */
"                                                                ",
"                                                                ",
"                                                                ",
"                                                                ",
"                                                                ",
"                                    # # # #         # # # #     ",
"                                  9 e , y / l     9 r l j 2     ",
"                                % r W ;.,.<.( = $ r ! %.X.q     ",
"                                % < 3.M.N.>.e @ @ 3 f ( /       ",
"                                % 1 2.S.S.:.s k k l j 0 #       ",
"      ; ;                       % y _ 9.y.w.=.*.*.=.$.l #       ",
"      G H m                     # a K J [ -.$.O.+.#.+.W r       ",
"    Z z.x.C                     3 s K K } -. .g ] ' ' E s 2     ",
"# A z.H.G.F                   8 P K K K } -.=.&.*.=.#.T 3 $ # # ",
"# S x.I.L.G .               + b 7.u.g.k.M.V.V.V.V.V.M.N.x.z.F % ",
"# t 2.J.H.8.> 8 q q         o n f.x.n.H.T.T.R.R.R.R.R.T.P.L.z.% ",
"# t ` h.m.4.O.$.o.` 0 O @ @ @ z A H p.b.H.H.Y.E.E.E.R.A.x.z.p.  ",
"# t R K } -.t.-.-.| 4 3 9 9 6 6 9 5 M p.z.z.C.K.K.L.G.d.O #     ",
"# t K K [ -.t.-.} P 7 d R R K I R R W B n V F H a.H F           ",
"  9 s R ' +.@...Y y d R ] Q ] { @.&.@.O.! ,.j.b.b.p.*           ",
"    2 d R W R T 9 r E E Q Q R ! #.-.-.-.e.i.J.Y.I.v.M           ",
"      9 9 9 9 7 & r E ] Q Q d e k o.-.@.y.m.Z.C.f.6.^ 9         ",
"        @ @ @ @ # e P R R P i p ) $.=.{ 5.p.d.a.x e l q #       ",
"                    3 U T q : N 1.w.*./ ; z x z ; 0 v - #       ",
"                    % w w & * p ) ( / h           ; ; = %       ",
"                    % = = = $ # # @ @               # *         ",
"                    # = =                                       ",
"                                                                ",
"                                                                ",
"                                                                ",
"                                                                ",
"                                                                "
};
