/* XPM */
static char *da8b6e842592437aae0b68294550ee9ds2dnIQOR92ZAxa5j[] = {
/* columns rows colors chars-per-pixel */
"32 32 129 2 ",
"   c #000001",
".  c #0E0303",
"X  c #060A02",
"o  c #0E0C03",
"O  c #05000B",
"+  c #0D000F",
"@  c #0C090D",
"#  c #110700",
"$  c #150B02",
"%  c #1A0D01",
"&  c #150B0C",
"*  c #1C0F09",
"=  c #0D1304",
"-  c #111404",
";  c #1D1205",
":  c #151C06",
">  c #191904",
",  c #070010",
"<  c #0A0011",
"1  c #0E0019",
"2  c #140417",
"3  c #150C15",
"4  c #1C0D13",
"5  c #13021D",
"6  c #17081D",
"7  c #1A081C",
"8  c #181E10",
"9  c #16111B",
"0  c #1C131E",
"q  c #241506",
"w  c #221D06",
"e  c #24160B",
"r  c #241E0B",
"t  c #2A1A0A",
"y  c #200E1B",
"u  c #2C1B11",
"i  c #2A161C",
"p  c #2E1C19",
"a  c #331F16",
"s  c #331E1D",
"d  c #152007",
"f  c #172209",
"g  c #1B240A",
"h  c #1D290C",
"j  c #1D2415",
"k  c #252507",
"l  c #222D0E",
"z  c #24320F",
"x  c #242B15",
"c  c #2D251E",
"v  c #352314",
"b  c #3A2615",
"n  c #3D2915",
"m  c #35211D",
"M  c #38251B",
"N  c #3D2B1C",
"B  c #263411",
"V  c #2A3613",
"C  c #263A14",
"Z  c #2C3C14",
"A  c #2F3D19",
"S  c #313E15",
"D  c #160322",
"F  c #1B0626",
"G  c #1B0B23",
"H  c #1D0629",
"J  c #1F082C",
"K  c #230E26",
"L  c #220B2D",
"P  c #261224",
"I  c #291424",
"U  c #251B24",
"Y  c #2D1B25",
"T  c #26112C",
"R  c #2A142A",
"E  c #2C1C2C",
"W  c #311C24",
"Q  c #210930",
"!  c #281630",
"~  c #2C1D30",
"^  c #2E2722",
"/  c #342125",
"(  c #382722",
")  c #3B2C22",
"_  c #32242C",
"`  c #3C2E29",
"'  c #3F3023",
"]  c #3E332C",
"[  c #312431",
"{  c #372B31",
"}  c #3E3531",
"|  c #40352C",
" . c #413731",
".. c #413832",
"X. c #2E4115",
"o. c #2E4119",
"O. c #304317",
"+. c #364917",
"@. c #384917",
"#. c #364218",
"$. c #34461B",
"%. c #34471B",
"&. c #39461B",
"*. c #344B18",
"=. c #3A4B19",
"-. c #3C4C1B",
";. c #384A1E",
":. c #3E481D",
">. c #3D491E",
",. c #384F1C",
"<. c #3D4E1C",
"1. c #3B521F",
"2. c #3C521F",
"3. c #3C4E22",
"4. c #3F5225",
"5. c #404B1E",
"6. c #434F1D",
"7. c #415119",
"8. c #40521F",
"9. c #40561C",
"0. c #45551C",
"q. c #424E23",
"w. c #455623",
"e. c #495523",
"r. c #465C21",
"t. c #4B5B22",
"y. c #4F5A28",
"u. c #4C6227",
"i. c #516128",
/* pixels */
"t.;.O.X.O.8.,.0.$ ; o.X.X.%.=.*.+.;.<.O.X.Z %.4.w.;.>.y.w.<.t.4.",
"%.e.+.<.<.8.8.8.X K i G O.%.B f Z O.X.X.w.w.%.w.,.+.;.w.=.&.-.2.",
"<.=.%.=.e.<.8.%.t e 5 Y 6 B i = X.X.X.z w.=.5 ,.;.<.O.X.O.X.O.*.",
"Z Z O.;.=.-.8.+.: <.V H M 1 t V %.Z C v   D , B X.*.<.=.O.@.&.S ",
"X.A &.2.<.%.<.e.> > B , M ) 5 B d q Z L s ] | R Z Z - 5.2.<.;.#.",
"O.&.@.6.8.8.e.h l w v H M | I   W 2 O m ) R + E ` c 3 %.,.<.<.%.",
"C Z %.8.e.<.8.j I 2 I M W b | T W D / ..! j q.V I k w.=.%.O.%.X.",
"X.X.-.8.;.q.t.-.; n s M n ) | b P W n L 4 B w.2.h I - O.%.O.O.*.",
"O.%.%.;.;.+.l r b & O R n Y n R ] _ ] N ] ] v g 2.=.o.%.%.X.O.O.",
"%.4.%.X.Z V < 4 l = I b W R Y 0 } ....Y 7 Z 2 q O.9.%.O.O.O.*.O.",
"+.-.=.%.X.A B Z Z 5 w 8 L | _ . } ) ..T >.%.%.<.O.<.%.O.O.%.%.X.",
";.8.-.;.A #.;.Z V Z S O.K n D   M / ) L #.<.<.e.<.O.&.;.O.%.X.<.",
"e.=.&.%.Z o.C C S %.*.<.= R O   $ | E T V 0.S Z X.;.O.S #.&.&.=.",
"%.>.w.<.%.%.3.w.=.-.O.X.= i       _ ' b B S C Z Z %.&.%.8.i.<.<.",
"X.X.%.X.Z +.;.,.w.*.1.8.- %       ^ } } S Z X.Z X.%.=.=.*.<.=.%.",
"=.=.X.S >.e.8.+.-.=.-.-.- ;       ^ R M Z O.Z %.w.2.<.8.<.<.w.=.",
"w.<.X.Z O.;.<.t.8.8.=.-.- T       P ] ] O.;.%.;.8.8.1.<.<.3.=.8.",
"=.w.O.C %.<.&.<.8.t.;.S L E #   < N ..} < X.Z %.O.%.=.t.u.8.@.%.",
";.,.O.C o.8.8.<.7.8.3.>.v _ s   v [ ..] < O.S 6.8.w.+.w.w.%.%.%.",
"%.%.*.O.<.t.6.%.8.%.*.#.M W M # ] ] | | % Z Z O.w.-.t.<.%.=.e.O.",
"o.X.X.&.w.-.&.t.8.X.-.< W K  .y Y .. ...U V O.w.0.8.8.2.O.%.%.w.",
"%.%.O.X.%.%.<.V $ V =.+ M R | I ....( | R h S ,.8.8.e.q.>.e.%.X.",
"&.%.X.X.%.Z Z Z & s 2 P n | W n ..| E | ~ X P G z O.X.&.X.%.%.-.",
"O.X.<.S D g 9 7 t 1 Q R n n ..b {  .N  .E E (   : l Z X.#.C o.;.",
"w.;.;.w.z G K W s n W Q M L | b  . .N | R M < H F p h X.X.A X.O.",
"2.+.;.3.%.a L - L s L Q T I M b M  .n T s } ] b 2   F V V Z O.-.",
"8.1.X.O.  @ V w L L O 2 Q Q L T T s  ./ L I O & W 5 - %.%.O.*.3.",
"+.1.%.-.-.@.h % v x A y b Q F 5 Q Q / ) h j L O.l e 2 B X.=.<.=.",
"w.=.<.9.9.w.<.* G O.7 b G 2 u z g 0 L s + ;.h -.<.<.*.Z #.-.t.<.",
"<.w.w.-.<.<.8.X O.=.o - 3.*.e : 6.B G & s V @.8.w.<.&.O.=.3.<.2.",
"%.w.t.X.%.%.w.r.=.8.e.e.%.=.-.#.&.D g 4.x O =.=.;.%.<.%.<.=.=.;.",
"0.4.4.o.X.,.w.1.%.3.8.=.3.&.8.&.w.z -.7.t.4.X.#.%.*.;.i.<.;.<.8."
};
