/* XPM */
static char *_100760aaf6d4ab7b8a82de95a4e8df7IMthaKa3dRHYqm8Q[] = {
/* columns rows colors chars-per-pixel */
"32 32 112 2 ",
"   c #000001",
".  c #0E0303",
"X  c #060A02",
"o  c #0E0C03",
"O  c #05000B",
"+  c #0D000F",
"@  c #0C090D",
"#  c #110700",
"$  c #150B02",
"%  c #1A0D01",
"&  c #150B0C",
"*  c #0D1304",
"=  c #111404",
"-  c #1D1205",
";  c #151C06",
":  c #191904",
">  c #10100C",
",  c #070010",
"<  c #0A0011",
"1  c #0E0019",
"2  c #140417",
"3  c #150C15",
"4  c #1C0D13",
"5  c #13021D",
"6  c #17081D",
"7  c #1A081C",
"8  c #181E10",
"9  c #1C131E",
"0  c #241506",
"q  c #221D06",
"w  c #2A1A0A",
"e  c #200E1B",
"r  c #2C1B11",
"t  c #24121C",
"y  c #2A161C",
"u  c #2E1C19",
"i  c #331F16",
"p  c #331E1D",
"a  c #152007",
"s  c #172209",
"d  c #1B240A",
"f  c #1D290C",
"g  c #1E310E",
"h  c #1D2415",
"j  c #222108",
"k  c #222D0E",
"l  c #24320F",
"z  c #242B15",
"x  c #352314",
"c  c #3A2615",
"v  c #3D2915",
"b  c #35211D",
"n  c #38251B",
"m  c #3D2B1C",
"M  c #263411",
"N  c #2A3613",
"B  c #263A14",
"V  c #2C3C14",
"C  c #2F3D19",
"Z  c #313E15",
"A  c #160322",
"S  c #1B0626",
"D  c #1B0B23",
"F  c #1D0629",
"G  c #230E26",
"H  c #220B2D",
"J  c #261224",
"K  c #291424",
"L  c #251B24",
"P  c #2D1B25",
"I  c #26112C",
"U  c #2A142A",
"Y  c #2C1C2C",
"T  c #311C24",
"R  c #210930",
"E  c #281630",
"W  c #2C1D30",
"Q  c #2E2722",
"!  c #342125",
"~  c #382722",
"^  c #3B2C22",
"/  c #32242C",
"(  c #3C2E29",
")  c #3F3023",
"_  c #3E332C",
"`  c #312431",
"'  c #372B31",
"]  c #3E3531",
"[  c #40352C",
"{  c #413731",
"}  c #413832",
"|  c #2E4115",
" . c #2E4119",
".. c #304317",
"X. c #364917",
"o. c #384917",
"O. c #34461B",
"+. c #39461B",
"@. c #344B18",
"#. c #3B4C1C",
"$. c #3C521F",
"%. c #3C4E22",
"&. c #3F5225",
"*. c #424D1E",
"=. c #40521F",
"-. c #424E23",
";. c #455623",
":. c #495523",
">. c #4B5B22",
",. c #4F5A28",
"<. c #4C6227",
"1. c #516128",
/* pixels */
"=.>.#.;.,.+.%.;.;...| | | #.+.o.O.#.O.| V  .- o =.$.=...| | #.>.",
"=.#.+.#.;.#.O.@.;...;.;.| | | | a l ..X.D y J X $.=.=.*.#.o.;.O.",
"O...| ......$.+.#.5 o.;.M | | | * y M 7 T 5 0 w o.=.#.:.#.O.o.$.",
"| +.o...o.$.O...M < A   b B V @.V w 1 n S V #.; o.=.#.o.+...V V ",
"+.o.#.$.#.; V V U ] ] i H V 0 ; g A ^ n < M : : :.+.O.o.;.+.C | ",
"O.$.#.$.+.3 Q ^ Y + I [ p O 3 p   J [ c F i j l f :.;.;.#.o.+...",
"| O...O.$.=.j K V =.h E ] ! A T R [ v P n I 1 K h ;.#.:.$.O.V B ",
"o.....O...* K f =.=.z 4 I c T I v } m v n n c - #.>.;.+.=.#. .| ",
"| | | O.O. .+.=.s x _ _ n ] / _ K v K c I O & c q k o.+.#.O.O. .",
"..@.......O.;.V 0 2 | 7 / ] } } J T U T v J o k 4 < N V ..O.%.#.",
"| O.#.| | O.#...#.O.O.#.I ] ) _ . / [ G 8 q 5 V V M C | ..#.$...",
"$.| O. .%.o...#.:.#.*...H ^ ! n   6 v G ..Z V N V o.O.C +.#.;.@.",
"o.+.o...Z ..#.| V Z =.N G Y [ %   O U * #.O.O...V B  .| #.O.o.:.",
"$.#.1.=.O.+.O.V V V V M c [ /       y * | ..$.o.&.&. .O.#.;.%.O.",
"O.#.#.o.#.o.O.| V V V Z _ [ Q       - * =.#.@.;.@.%.o.Z ........",
"o.;.*.$.=.#.=.:.O.| ..C n U Q       - = $.#.#.#.O.$.:.+.Z ..o.o.",
"=.o.&.#.$.=.=.=.@.O.+.Z ] [ K       I * #.#.=.=.>.#.o...V ..#.;.",
"O.o.=.<.=.#.O...#.| | < ] { n <   # Y H ..+.>.=.#.+.=.O.B ..;.o.",
"O.O.O.;.=.o.:.=.&.Z ..< ] { ` c   T Y c +.%.=.=.$.=.=...B  .$.#.",
"..:.#.O.=.>.#.:.| V V % [ [ ( { # c T c X.+.O.=.O.#.>.#.| O.#...",
"=.O.O...;.$.=.=.;...V L { { { Y D } I T , #.| $.>.+.#.;.O. .| ..",
"..O.:.#.-.:.=.$.O.Z f U [ ~ { } Y m U c + #.N $ N #.O.O.V ..O.O.",
"#.O.O...+.| ..l D I X W [ Y [ { m T ^ v J 5 i & N V V +.| ..#.O.",
"+.| B +.| V f ;   ~ Q U { m [ ' m } v v U R 1 r e 9 s A Z #.| | ",
"..| C V  .f u F F 1 x U _ m } } c [ H n R T c p T I D l ;.+.$.=.",
"$...V M M S   2 c _ _ T I v [ n c n U G R H b H * H i X.%.+.@.;.",
"%.#. .#.O.* 5 T $ < J R ~ { p I I R R H 2 O H H q N @   ..| @.&.",
"o.#.o.| N 2 0 l C F z k ^ ! R R 2 H R c t V z x % f o.#.$.O.$.@.",
"#.>.#...V #.#.#.#.f o.+ p H 9 f l r 5 S c 7 | D - #.;.=.=.#.#.=.",
"=.$.+.#...+.#.&.=.#.V p > S M *.; 0 ..#.= o #...X =.#.$.#.;.=.=.",
"+.#.#.#.O.#.O.$.#.o.@ z &.d 5 +...#.#.O.:.:.=.#.;.;.O.O.X.=.>.O.",
"=.$.#.#.1.#.@...O.| *.=.=.#.k :.+.;.o.=.#.=.#.O.$.;.$.| ..&.=.=."
};
