/* XPM */
static char *_7c2a74e37fe4236d10bb952af40a48dSVoIIl9rn8B5NlN7[] = {
/* columns rows colors chars-per-pixel */
"32 32 8 1 ",
"  c None",
". c #2F2F2E",
"X c #3B3B39",
"o c #4F4F4E",
"O c #9D5021",
"+ c #D67941",
"@ c gray72",
"# c white",
/* pixels */
"                                ",
"                                ",
"                                ",
"                                ",
"                                ",
"                                ",
"                                ",
"                                ",
"                                ",
"                 ..             ",
"                .O.  ...        ",
"               .O#. .O+.        ",
"     ..        .O#.....         ",
"     .@...     .OO++++.         ",
"     .@##+.    .OO+.OOO.        ",
"      .@O++.  .OOO++++...       ",
"       .O+++. .@@#######.       ",
"       .OO++.....@@###..        ",
"        .OO.OOOOO.....          ",
"         ..OOOO++++##.          ",
"          .OOO+++O@@..          ",
"          .O....+...O.          ",
"          .X.X..o. .o.          ",
"          .. .  ..  ..          ",
"                                ",
"                                ",
"                                ",
"                                ",
"                                ",
"                                ",
"                                ",
"                                "
};
