/* XPM */
static char *_58881851e164b0bd868f5012eea329cw1HNZl52YvQi3Miy[] = {
/* columns rows colors chars-per-pixel */
"32 32 8 1 ",
"  c None",
". c #2F2F2E",
"X c #3B3B39",
"o c #4F4F4E",
"O c #9D5021",
"+ c #D67941",
"@ c gray72",
"# c white",
/* pixels */
"                                ",
"                                ",
"                                ",
"                                ",
"                                ",
"                                ",
"                                ",
"                                ",
"                                ",
"             ..                 ",
"        ...  .O.                ",
"        .+O. .#O.               ",
"         .....#O.        ..     ",
"         .++++OO.     ...@.     ",
"        .OOO.+OO.    .+##@.     ",
"       ...++++OOO.  .++O@.      ",
"       .#######@@. .+++O.       ",
"        ..###@@.....++OO.       ",
"          .....OOOOO.OO.        ",
"          .##++++OOOO..         ",
"          ..@@O+++OOO.          ",
"          .O...+....O.          ",
"          .o. .o..X.X.          ",
"          ..  ..  . ..          ",
"                                ",
"                                ",
"                                ",
"                                ",
"                                ",
"                                ",
"                                ",
"                                "
};
