/* XPM */
static char *a5e20bc95d794ce3827bbe88e4920eebL1mEQna2Y4wO3bG6[] = {
/* columns rows colors chars-per-pixel */
"32 32 143 2 ",
"   c None",
".  c #073F0D",
"X  c #620202",
"o  c #6E0404",
"O  c #6B0909",
"+  c #730202",
"@  c #7B0504",
"#  c #7C1414",
"$  c #423C0D",
"%  c #642404",
"&  c #683C10",
"*  c #07410D",
"=  c #05540D",
"-  c #045B0D",
";  c #12590E",
":  c #27570C",
">  c #3E530E",
",  c #04730E",
"<  c #02790F",
"1  c #076C11",
"2  c #096D13",
"3  c #1D6D12",
"4  c #106E1A",
"5  c #047512",
"6  c #097313",
"7  c #067A12",
"8  c #097A14",
"9  c #0C7E1C",
"0  c #1D741B",
"q  c #117A1C",
"w  c #3F7715",
"e  c #41500E",
"r  c #454F10",
"t  c #584211",
"y  c #544B11",
"u  c #475F11",
"i  c #7C4C11",
"p  c #775C10",
"a  c #795F12",
"s  c #4D6012",
"d  c #576419",
"f  c #407411",
"g  c #820303",
"h  c #8A0404",
"j  c #9D0303",
"k  c #920F0F",
"l  c #9C0D0D",
"z  c #821506",
"x  c #821616",
"c  c #871A1A",
"v  c #891A1A",
"b  c #941616",
"n  c #9B1717",
"m  c #941818",
"M  c #981818",
"N  c #A50606",
"B  c #A90707",
"V  c #A40C0C",
"C  c #AB0B0C",
"Z  c #B50C0C",
"A  c #BA0D0D",
"S  c #A7120C",
"D  c #A01D0F",
"F  c #AE1413",
"G  c #A61E10",
"H  c #AE1A10",
"J  c #B61111",
"K  c #BA1212",
"L  c #9E2210",
"P  c #B32113",
"I  c #C10C0C",
"U  c #C61313",
"Y  c #CA1414",
"T  c #CA1818",
"R  c #D11616",
"E  c #D51919",
"W  c #DC1A1A",
"Q  c #E51B1B",
"!  c #E81F1F",
"~  c #E62525",
"^  c #E92424",
"/  c #ED2B2B",
"(  c #EA3030",
")  c #EE3B3B",
"_  c #F33535",
"`  c #8D4D19",
"'  c #974F1B",
"]  c #815717",
"[  c #885017",
"{  c #815E17",
"}  c #85571B",
"|  c #8D541B",
" . c #8E591D",
".. c #90571C",
"X. c #91581D",
"o. c #80621D",
"O. c #816F1D",
"+. c #81761D",
"@. c #81781D",
"#. c #EE4646",
"$. c #E94C4C",
"%. c #F24444",
"&. c #F24B4B",
"*. c #EA5353",
"=. c #F15252",
"-. c #F15B5B",
";. c #ED6262",
":. c #F06464",
">. c #F06C6C",
",. c #EF7B7B",
"<. c #019E0F",
"1. c #0A8717",
"2. c #078F14",
"3. c #0F8B1B",
"4. c #13831E",
"5. c #1B811A",
"6. c #118C1D",
"7. c #1C8C1B",
"8. c #089715",
"9. c #099917",
"0. c #099718",
"q. c #0D9D1A",
"w. c #1E9D11",
"e. c #11961D",
"r. c #119B1E",
"t. c #2C9519",
"y. c #02A212",
"u. c #07AA17",
"i. c #0BA41A",
"p. c #07AB18",
"a. c #0BAC1B",
"s. c #10A51E",
"d. c #1DA61D",
"f. c #11AA1F",
"g. c #1DAF1E",
"h. c #0DB31D",
"j. c #0FBA1F",
"k. c #0FB91F",
"l. c #10B01F",
"z. c #1DB71F",
"x. c #2BA919",
"c. c #51921A",
"v. c #53961A",
/* pixels */
"                                                                ",
"                                                  <.y.p.2.*     ",
"                                            y.y.u.p.h.j.q.*     ",
"            y.p.p.u.,                   <.y.u.p.l.e.i.l.q.*     ",
"            p.j.k.h.0.1           [ [ p w.p.a.e.6.q s.a.6 *     ",
"            u.k.i.s.h.0.2       [ ....a x.k.3.q r.s.i.6 *       ",
"            h.p.6.4.f.h.i.6   | ....{ v.g.3.4 1.l.a.6 .         ",
"              i.i.s.r.6.l.q.3 } X.] c.7.4.8 7 1.8 6 *           ",
"              8 9.k.l.6.r.h.d.O.X.d 5.7 7 7 - = .               ",
"                u t.h.e.4.s.z.@.X.f , ; > e $                   ",
"              B S i t.a.4.4.d.@. .f : $ L G G + +               ",
"            I W Y F [ u t.4.0 a X.e % # F J J C V O             ",
"          A Q Q R K F H i y t ` ' t z A J K J K F # X           ",
"        N U Q Q Q R K J J H H P P H J K J J K K F x O           ",
"        A Q ! ^ ^ ! R K J J J K J J J J J Y W K F c # X         ",
"      B T ^ ) =.%./ ^ E J J J J J J J K U Q W K F v x O         ",
"      A ^ %.:.,.:.%._ / R U Y Y Y Y U Y ~ ~ Q K F v c # X       ",
"      A ^ -.,.,.,.-._ / ! ~ #.*.$.*./ / / / W K F v c # X       ",
"      A ^ -.,.,.,.-._ _ / _ *.;.:.;.) / ! Q R K F v c # X       ",
"      A ^ -.,.,.,.-._ _ ( / ^ ! / / ! Q Q R K J F v m b X       ",
"      A ~ #.>.,.>.&._ _ ^ Q Q Q Q Q Q Q R K J J n v n B X       ",
"      C E / &.-.=._ ( / ^ / / ! Q Q Q Y K K J F v v J B X       ",
"      N K W ^ / ^ ^ ^ Q Q / _ ^ Q Q Y K A J J n v n I B X       ",
"      j C U W Q Q Q Q Q Q ^ ^ ~ R Y K K J J F v m J Z h         ",
"        N J K Y U Y U U U U U U K J J J J J n c n A B X         ",
"        j C J J J J J J J J J J K J J J J m c m A Z g           ",
"          N A J J J J J K J J J J J J J F v b A I B X           ",
"            C J J J J J J J K J J J J J n m A A Z l             ",
"              j C J J J J J J J J F m n A A Z g g               ",
"                  C Z Z A J J F m m M F Z Z @                   ",
"                    j j V V F b x x V @ + +                     ",
"                        + + + X o X +                           "
};
