/* XPM */
static char *_64a2d246cbb40c5e0720ca3ed04c654Raj9596kWSHQISe8[] = {
/* columns rows colors chars-per-pixel */
"32 32 127 2 ",
"   c None",
".  c #761111",
"X  c #5C3208",
"o  c #074D0E",
"O  c #24460D",
"+  c #0C6F13",
"@  c #077A13",
"#  c #27650E",
"$  c #6B5E16",
"%  c #775919",
"&  c #6B6819",
"*  c #6A7C1D",
"=  c #880707",
"-  c #9C0606",
";  c #9E0606",
":  c #9A0909",
">  c #9E0E0E",
",  c #851919",
"<  c #871919",
"1  c #8B1919",
"2  c #8D1919",
"3  c #9B1717",
"4  c #961818",
"5  c #A40707",
"6  c #A90A0A",
"7  c #AB0A0A",
"8  c #AD0909",
"9  c #BB0C0C",
"0  c #BD0C0C",
"q  c #A6100E",
"w  c #A8100D",
"e  c #A41313",
"r  c #A01515",
"t  c #A11616",
"y  c #A41515",
"u  c #AA1313",
"i  c #A81414",
"p  c #AC1414",
"a  c #B41010",
"s  c #B51111",
"d  c #B61010",
"f  c #B61111",
"g  c #B71111",
"h  c #B51212",
"j  c #B11611",
"k  c #B81111",
"l  c #BA1212",
"z  c #B21811",
"x  c #883610",
"c  c #9E3511",
"v  c #983714",
"b  c #973A14",
"n  c #C41111",
"m  c #C51212",
"M  c #C51313",
"N  c #C61212",
"B  c #C51414",
"V  c #C61414",
"C  c #C61515",
"Z  c #CE1616",
"A  c #CF1616",
"S  c #D01616",
"D  c #D01717",
"F  c #D11717",
"G  c #D11818",
"H  c #D21A1A",
"J  c #E41B1B",
"K  c #E51B1B",
"L  c #E31D1D",
"P  c #E51D1D",
"I  c #E61C1C",
"U  c #E71D1D",
"Y  c #E71F1F",
"T  c #D12222",
"R  c #DD2222",
"E  c #E82424",
"W  c #EA2828",
"Q  c #EB2B2B",
"!  c #EC2A2A",
"~  c #EC2B2B",
"^  c #EC2D2D",
"/  c #EC3030",
"(  c #EF3232",
")  c #F23434",
"_  c #F23535",
"`  c #845A17",
"'  c #8C541A",
"]  c #8A581A",
"[  c #EE4C4C",
"{  c #F14F4F",
"}  c #EB5757",
"|  c #F25050",
" . c #F05B5B",
".. c #F06060",
"X. c #F16060",
"o. c #EF7777",
"O. c #EF7B7B",
"+. c #088714",
"@. c #0B8C17",
"#. c #0E8A19",
"$. c #0B8D18",
"%. c #14861D",
"&. c #11881C",
"*. c #0A9A17",
"=. c #0C9E19",
"-. c #0D9F1B",
";. c #10991D",
":. c #119B1E",
">. c #129B1E",
",. c #119C1E",
"<. c #328918",
"1. c #01A011",
"2. c #03A010",
"3. c #05A615",
"4. c #06A716",
"5. c #0FA61D",
"6. c #0AA819",
"7. c #08AB18",
"8. c #08AC18",
"9. c #0FAA1E",
"0. c #10A71E",
"q. c #1FA31B",
"w. c #10A91E",
"e. c #1CAD1B",
"r. c #0DB21D",
"t. c #498E1A",
"y. c #6A911E",
/* pixels */
"                                                                ",
"                                                                ",
"                                                                ",
"                                                                ",
"                                                                ",
"                                                                ",
"                                                                ",
"                                        1.4.+.                  ",
"                      8.4.          2.6.5.w.$.                  ",
"                      r.9.*.    ' ` e.&.>.=.o                   ",
"                      6.>.,.=.% ] t.#.@ $.o                     ",
"                        q.>.0.y.& + # O                         ",
"                      M c <.%.* $ X j q =                       ",
"                    M K V j x b v w g k t                       ",
"                    L / E C g g g g C Z t .                     ",
"                  M { o.| ! G T T H W G t ,                     ",
"                  V X.O.X._ / }  .^ U B t ,                     ",
"                  M [ o.| _ Y I U K V g 4 e                     ",
"                  6 R ^ ~ U ! ! J V g u 2 0                     ",
"                    k F F F G Z k g g 4 i -                     ",
"                    6 k g g g g g g t 3 0                       ",
"                      6 g g g g g t u 8 :                       ",
"                        5 6 g u 1 > -                           ",
"                                                                ",
"                                                                ",
"                                                                ",
"                                                                ",
"                                                                ",
"                                                                ",
"                                                                ",
"                                                                ",
"                                                                "
};
