/* XPM */
static char *_131f47912a14aed83fead9b5a2b3138MKvtESnxBubKCFUl[] = {
/* columns rows colors chars-per-pixel */
"32 32 140 2 ",
"   c #010400",
".  c #050B00",
"X  c #080F00",
"o  c #0C1400",
"O  c #0F1801",
"+  c #131C01",
"@  c #181F03",
"#  c #171D11",
"$  c #191F12",
"%  c #162201",
"&  c #192302",
"*  c #1D2B01",
"=  c #1C240A",
"-  c #1F280D",
";  c #172012",
":  c #1C2313",
">  c #1F2813",
",  c #212E02",
"<  c #232E0C",
"1  c #243301",
"2  c #293704",
"3  c #2B3C02",
"4  c #26320C",
"5  c #29350C",
"6  c #2D3C0B",
"7  c #212613",
"8  c #222B15",
"9  c #292F17",
"0  c #252E18",
"q  c #292B1D",
"w  c #263214",
"e  c #2A3515",
"r  c #253915",
"t  c #2C3C14",
"y  c #273119",
"u  c #29331A",
"i  c #2E3C1A",
"p  c #323D14",
"a  c #313D1B",
"s  c #2D2E20",
"d  c #313723",
"f  c #343827",
"g  c #3B3C2D",
"h  c #2F4102",
"j  c #324503",
"k  c #364A03",
"l  c #394E04",
"z  c #33430D",
"x  c #374A0A",
"c  c #394D09",
"v  c #3D5305",
"b  c #3D530A",
"n  c #2E4115",
"m  c #314317",
"M  c #394A16",
"N  c #34461B",
"B  c #39461B",
"V  c #344A1A",
"C  c #3B4C1C",
"Z  c #3E5214",
"A  c #3C511E",
"S  c #3D4E22",
"D  c #3A402A",
"F  c #405707",
"G  c #40540D",
"H  c #455D0B",
"J  c #434F1D",
"K  c #405414",
"L  c #455B12",
"P  c #40521E",
"I  c #465A1C",
"U  c #4A5E1C",
"Y  c #476109",
"T  c #4B650B",
"R  c #4E6A0B",
"E  c #506B0E",
"W  c #54710F",
"Q  c #5B7C0E",
"!  c #4C6413",
"~  c #4C631B",
"^  c #516C14",
"/  c #536A1E",
"(  c #557213",
")  c #5A7616",
"_  c #5C7C13",
"`  c #57701A",
"'  c #5A751C",
"]  c #607F1C",
"[  c #414C23",
"{  c #42492D",
"}  c #455623",
"|  c #495523",
" . c #465A21",
".. c #4B5B22",
"X. c #4F5A28",
"o. c #454636",
"O. c #494A3A",
"+. c #4C6321",
"@. c #506623",
"#. c #546B22",
"$. c #53632A",
"%. c #577023",
"&. c #5B7422",
"*. c #5D7820",
"=. c #5E7923",
"-. c #5F7C23",
";. c #607D21",
":. c #535342",
">. c #585846",
",. c #575848",
"<. c #5B5A49",
"1. c #696A55",
"2. c #72725D",
"3. c #797963",
"4. c #66861E",
"5. c #688A1C",
"6. c #6B9015",
"7. c #6D9218",
"8. c #648121",
"9. c #648223",
"0. c #678423",
"q. c #678625",
"w. c #668426",
"e. c #6B8C21",
"r. c #6C8927",
"t. c #6C8A28",
"y. c #6E8F29",
"u. c #6F9020",
"i. c #6F9022",
"p. c #719327",
"a. c #729327",
"s. c #759A20",
"d. c #7B9E29",
"f. c #7CA223",
"g. c #7EA622",
"h. c #85AC2B",
"j. c #88B02D",
"k. c #8BB32D",
"l. c #84846D",
"z. c #94947C",
/* pixels */
"P ..C } X.C S } A } k.i.n q.C V n M N n m N m N P C P m n n C ..",
"P C B C } C V N } I =.h.p.y.k.-.t n N M m C S V } A P C C M | N ",
"N m n m m m C C } +.=.s.i.4.e.=.t m B M ;.} A A A } C | C N M C ",
"n B M m V C N p.i.~ L ! l b H U 5.*.| t.k.C A ..Z A A C C n i n ",
"m C C A | } B C A ) T x 2 + v 4.b 8./ w.p.N C } | C N C A B a n ",
"N P C C C A } I +.Y b R * h k 1 1 v ! ) 7.-.~ A A | P P C M B m ",
"m N m N C } C %.Z T v k k v , , o * 3 R ' / / V C A C | A N t r ",
"V m m N m A ;.0.z 3 1 1 1 v R Y v * 1 1 - I @.V A ..[ S P C m n ",
"m n n N N C / Z 6 1 + + Y % , * l k j h E 7.8.M [ B M N S N N m ",
"m V m m m +.' b z , O j T O o O , & . + h H ~ U d.w.t t m N A N ",
"n N N m m %./ M C H l l , o o O , 1 . O h b g.&.8.8.N t N C A N ",
"C n N m C B M C K 1 j h j , X . X % %   Y b h b T ) q.a C C A C ",
"C C ' U / / U / ^ & o 3 j   o o . % o . , b 1 * 2 W f.M N B C | ",
"P ' ` H ' ! M K x % . O Q 3 H o +   O 1 . O X 3 * j ^ u.r.+.C N ",
"N I L T F x , j W j 3 j h j j v R 1 2 2 O X & % & l 6.] ;.h.+.m ",
"M } m H j , 1 j h 1 1 l * 3 1 v v b 5 4 1 % & . + j _ ) L q.C M ",
"} 8.^ h + + + + * z + & & + 1 1 j 2 4 O O j j O & * & 5 ] 0.P } ",
"i.-.( 1 + & & = + < + @ 1 % , z j & < % + * 3 o + , O j I p.&.M ",
"C N Z 2 & & + + = < , & , 1 , < & w 0 e = , j @ , 5 z Z Z V C S ",
"m #.Z R h O O l j 3 < e 4 < 6 L n t M w 4 = @ 2 6 p B C m N N N ",
"A C Z h & o X 3 2 * , = < p s a m u e e u p m J C C C } B m n m ",
"m +.~ % o O T _ 1 5 6 8 7 q O.q u g a D { [ B C B J V N t m N N ",
"C V m w , < H c z M ^ 8 < 8 :.s g O.:.f : 0 0 i e t t N n m N N ",
"C n r 8 = 6 6 6 5 t 7 = < # :.g 2.O.7 : # $ # : $ : y C | C m m ",
"m n m i : t G 6 : : ; : : # >.3.<.7 $ : $ # # # 7 : : 0 S S C S ",
"C m e 8 : : 0 : : : : : # ; o.l.o.$ $ # # $ # : 7 : : 8 u i m A ",
"S N i > : 7 ; : 7 8 : : : : ,.z.,.# # # $ $ : $ $ # $ : ; y i S ",
"C C i : # ; # 8 : u 0 : 8 : 1.z.2.# $ : $ : : : $ : : : : > i m ",
"C | a 8 ; : 7 8 q u y 0 > d 3.z.z.o.: : : > > : 8 u i N S N M } ",
"P C S C a a C C N 9 0 8 8 : o.l.1.q i S $.X.N i A A S C C } } S ",
"C M M C N A N N i m S u i u w 9 u N N N | | } C  .} N N n ..} m ",
"} C C C $.N V N i u N J P A } | B P B } C A S N A } C n m S } I "
};
