/* XPM */
static char *_81e55650c8c4ef7aab4f35b78926322aoVbRwx2oBuB241N[] = {
/* columns rows colors chars-per-pixel */
"32 32 255 2 ",
"   c #0B1006",
".  c #061508",
"X  c #141606",
"o  c #0A1A08",
"O  c #111908",
"+  c #1A1A06",
"@  c #0D200A",
"#  c #131F0A",
"$  c #181F0B",
"%  c #0F260A",
"&  c #15250A",
"*  c #1A240A",
"=  c #20250B",
"-  c #122A0F",
";  c #18290F",
":  c #1B2A0B",
">  c #112D0C",
",  c #20290A",
"<  c #172C0C",
"1  c #192F0F",
"2  c #272B0F",
"3  c #143110",
"4  c #1F2E0F",
"5  c #232D10",
"6  c #23310C",
"7  c #19340D",
"8  c #28300D",
"9  c #2C2F0D",
"0  c #1F330D",
"q  c #20340F",
"w  c #25330F",
"e  c #1D3811",
"r  c #183A12",
"t  c #233711",
"y  c #283612",
"u  c #2D3513",
"i  c #243813",
"p  c #203B14",
"a  c #30370E",
"s  c #273A0F",
"d  c #1D3D0F",
"f  c #233C10",
"g  c #273B15",
"h  c #2D3A10",
"j  c #2C3A16",
"k  c #293C10",
"l  c #293D17",
"z  c #2B3D12",
"x  c #2B3C1C",
"c  c #263F12",
"v  c #323A22",
"b  c #214113",
"n  c #303D13",
"m  c #2F3D19",
"M  c #2D3F14",
"N  c #363D13",
"B  c #353D1A",
"V  c #284215",
"C  c #333F15",
"Z  c #30410F",
"A  c #2E4115",
"S  c #2D411B",
"D  c #393F10",
"F  c #2B4417",
"G  c #304317",
"H  c #264618",
"J  c #364211",
"K  c #364218",
"L  c #324412",
"P  c #2E4612",
"I  c #3C4219",
"U  c #2A4814",
"Y  c #36441F",
"T  c #394514",
"R  c #254B15",
"E  c #304814",
"W  c #3E4414",
"Q  c #354715",
"!  c #34471B",
"~  c #334721",
"^  c #39461B",
"/  c #314915",
"(  c #3E4521",
")  c #3D4527",
"_  c #384917",
"`  c #2E4C18",
"'  c #344B18",
"]  c #324B1E",
"[  c #3D4918",
"{  c #384A1E",
"}  c #444812",
"|  c #3D491E",
" . c #3B4925",
".. c #42481E",
"X. c #3A4B19",
"o. c #374D13",
"O. c #3C4C13",
"+. c #404B13",
"@. c #2C521C",
"#. c #384F1C",
"$. c #3E4E16",
"%. c #3D4E1C",
"&. c #33511C",
"*. c #395016",
"=. c #3C4E22",
"-. c #345216",
";. c #444E17",
":. c #365123",
">. c #424E23",
",. c #474D23",
"<. c #3B5029",
"1. c #434F1D",
"2. c #464D29",
"3. c #404F29",
"4. c #3B521F",
"5. c #415119",
"6. c #3C5319",
"7. c #40521F",
"8. c #3F5225",
"9. c #504E1E",
"0. c #4A501F",
"q. c #3F5136",
"w. c #485032",
"e. c #3A571B",
"r. c #335922",
"t. c #40561C",
"y. c #45551C",
"u. c #415716",
"i. c #4A541D",
"p. c #435528",
"a. c #3E5723",
"s. c #41552E",
"d. c #3C5729",
"f. c #485429",
"g. c #485617",
"h. c #4D5329",
"j. c #455623",
"k. c #495523",
"l. c #4C532E",
"z. c #46552F",
"x. c #435A39",
"c. c #465C21",
"v. c #455C28",
"b. c #4B5B22",
"n. c #4A5B28",
"m. c #485B2E",
"M. c #515A22",
"N. c #4F5A28",
"B. c #4E5A2E",
"V. c #555A1D",
"C. c #435E2F",
"Z. c #4C5B34",
"A. c #535934",
"S. c #416027",
"D. c #4C5E1E",
"F. c #525A3B",
"G. c #4C5C3B",
"H. c #555B30",
"J. c #5C5E1A",
"K. c #4D6033",
"L. c #545F2D",
"P. c #4C6227",
"I. c #4A622D",
"U. c #535F33",
"Y. c #4F612D",
"T. c #516128",
"R. c #576028",
"E. c #50672C",
"W. c #56662C",
"Q. c #546632",
"!. c #506833",
"~. c #566639",
"^. c #5B6633",
"/. c #5B6822",
"(. c #5E672E",
"). c #4B6C35",
"_. c #5B6929",
"`. c #626637",
"'. c #616642",
"]. c #566C2A",
"[. c #576948",
"{. c #556C31",
"}. c #576D24",
"|. c #5B6B31",
" X c #5A6B37",
".X c #4C7230",
"XX c #6A6B31",
"oX c #59713C",
"OX c #5A7236",
"+X c #61703D",
"@X c #617136",
"#X c #597431",
"$X c #5E7331",
"%X c #677035",
"&X c #53772B",
"*X c #647232",
"=X c #5F752C",
"-X c #66732C",
";X c #6B722D",
":X c #637627",
">X c #5A7927",
",X c #737546",
"<X c #647B3A",
"1X c #637B45",
"2X c #647D33",
"3X c #6C7A3B",
"4X c #687C33",
"5X c #717A3C",
"6X c #697E2E",
"7X c #5D8137",
"8X c #6F7C35",
"9X c #7C793A",
"0X c #6D7C4A",
"qX c #757C36",
"wX c #787D31",
"eX c #72812B",
"rX c #638532",
"tX c #758032",
"yX c #6D8442",
"uX c #6F853B",
"iX c #708635",
"pX c #6C8B2F",
"aX c #82852F",
"sX c #738A31",
"dX c #89852C",
"fX c #63912F",
"gX c #7C8A32",
"hX c #908535",
"jX c #828A40",
"kX c #738F3E",
"lX c #69923F",
"zX c #7B8E40",
"xX c #779636",
"cX c #7E9437",
"vX c #979033",
"bX c #839730",
"nX c #899537",
"mX c #7C9A31",
"MX c #739E35",
"NX c #879E2F",
"BX c #959A2F",
"VX c #7FA12F",
"CX c #64A930",
"ZX c #76A531",
"AX c #A79F2F",
"SX c #8BA838",
"DX c #95A733",
"FX c #8FAA31",
"GX c #84AD34",
"HX c #A2A731",
"JX c #81B635",
"KX c #90B834",
"LX c #9EB433",
"PX c #94C03C",
"IX c #B9BA3C",
/* pixels */
"7.b.%.7.N.| { j.7.! A G G %.{ Q ! X.! M A ! G ! y.#.7.G A G { b.",
"7.%.^ %.j.{ ' #.j.! j.7.A A G A h A ! _ G X.{ #.7.7.7.%.%.Q k.! ",
"! G A G G G %.{ 7.{ 7.j.' / A A M G ^ X.7.7.7.%.%.7.%.k.X.! X.%.",
"A ^ _ G _ %.! G G ' 7.7.7.G ! ! j G k.%.#.{ %.b.t.7.%.X.{ G j M ",
"K { %.7.k.7.^ %.! ! 7.#._ X.G G q M ! { ! ! #.j.k.%.! %.7.^ m A ",
"! %.%.#.{ 7.j.y.%.{ 7.X.7.j.=.G c ! X.! G 7.#.#.#.k.7.7.%._ ^ G ",
"A ! G ! %.7.%.%.%.7.t.b.%.%.{ { G G A ! #.%.! X.#.7.%.k.7.! l i ",
"' G G ! G ! ! G t.b.7.7.! %._ %.! F G ! G ! %.! %.b.>.{ 1.%.G A ",
"G G A ! ! ! 7.7.%.7.7.{ 7.7.X.%.{ A ! ^ ! { 7._ >.K _ { { ! ! G ",
"G ' G G G ! 7.7.7._ 7.%.{ 7.%.X.X.%.G G { A M C K m j z G ! 4.! ",
"A ! ! G G ! %.G %.! ! k.! 7.k.%.b.X.^ K Q M M m z y m A K X.%.! ",
"%.A ! G { ^ G %.k.%.%.%.X._ ! A %.! ! %.X.C M y z ^ K m { %.7.{ ",
"X.^ ^ K A G { A j C y.G M j ! %.1.1.X.%.%.! ! A g g S M ! ^ X.k.",
"%.%.T.7.! ^ ! z M g n j m M ! ! ^ G A G A G %.X.7.8.G ! %.j.| ! ",
"! X.%._ X.X.! A M M j [ G m A M ! ^ ! ^ 7.#.' j.#.{ _ M G G G G ",
"X.j.%.%.7.%.7.j.! M G ! A M G z K %.%.y.%.%.X.%.! 7.k.| n G _ X.",
"7.X.=.%.%.7.7.7.{ ! { X.G ^ G g { >.j.{ %.X.7.7.b.%.{ G z G %.j.",
"! _ 7.P.b.%.! G ! M A ^ G l i g X.A %.! _ { b.7.%.^ %.! g G j._ ",
"! ! ! j.7.! j.7.7.C G X.%.! A g ! X.G { j.=.7.5.%.7.7.G i G #.{ ",
"G k.X.! %.b.%.j.G M j %.7.7.G G G G { 7.%.{ ! 7.! %.b.%.G ! ! ! ",
"7.! ! G 7.7.7.y.7.G G ! ! ! ' ! G A ! { ^ %.A 7.b.^ %.j.^ G M G ",
"G ! k.| >.k.7.7.7.^ l ! A G 7.%.{ ! ^ { %.1.^ | ^ %.! ! M G ! ! ",
"%.! ! A ^ M G z ! M A G ! { %.X.X.! G ! M G ^ ! j M z ^ A G ! ^ ",
"{ G g K A z j K ! ! G A G ! %.G %.G 7.7.z g z k j m M %.k.%.A G ",
"G A m A A y m l { #.F ! { { X.M.1.1.^ 7.^ y M C %.K ! 7.j.{ %.7.",
"%.G j y M 1.^ ^ { ! Q G A ! G G C ^ K j z G M %.1.%.Q 7.=.{ ' 7.",
"=.! G ! ^ 1.G G ! j.1.^ G ! G M g k j M M C | ! A M G ! G G #.7.",
"X.%.X.A A ^ G G ^ %.X.! X.[ C A M z C ^ z ! | G ! X._ %.%.! 4.' ",
"%.b.%.K M ! %.%.7.7.{ ! { 7.^ G z y g m g G ! K ! %.j.7.7.%.X.7.",
"7.%.{ X.G ^ %.7.7.X.7.7.b.7.7.%.#.{ ' j.W.N.X.! 7.7.%.%.%.j.j.7.",
"{ X.X.%.! %.! #.%.X.j.P.7.{ G ^ %.7.X.! k.k.7.X.c.j.! ! G b.j.! ",
"7.%.{ %.T.{ ' ! ! A %.b.5.%.7.k.^ 7.^ 7.X.7.=.! 4.j.#.F G =.7.y."
};
